<?xml version="1.0" encoding="utf-8"?>
<!-- Generator: Adobe Illustrator 16.0.0, SVG Export Plug-In . SVG Version: 6.00 Build 0)  -->
<!DOCTYPE svg PUBLIC "-//W3C//DTD SVG 1.1//EN" "http://www.w3.org/Graphics/SVG/1.1/DTD/svg11.dtd">
<svg version="1.1" xmlns="http://www.w3.org/2000/svg" xmlns:xlink="http://www.w3.org/1999/xlink" x="0px" y="0px" width="288px"
	 height="216px" viewBox="0 0 288 216" enable-background="new 0 0 288 216" xml:space="preserve">
<g id="Monocromático" display="none">
	<path display="inline" d="M58.774,18.151c5.068,3.367,16.732,13.899,25.853,26.416C95.654,59.7,98.085,63.848,102.102,70.415
		c0.884,1.444,1.596,3.154,2.254,2.969c0.77-0.216,1.006-1.192,1.48-2.508c1.524-4.226,3.81-14.875,4.323-25.644
		c0.278-5.842-0.213-13.545-3.724-21.621c0,0-9.742-4.547-23.5-6.405c-14.182-1.915-21.14-1.417-24.108-1.346
		c-1.115,0.026-1.404,0.244-1.484,0.676C57.25,17.039,57.665,17.414,58.774,18.151z M76.129,98.578
		c2.35,2.334,3.438,3.05,4.021,2.637c0.486-0.344,0.445-1.108-0.502-2.718c-1.514-2.575-7.467-15.356-7.467-32.378
		s0.841-18.77,2.458-27.526c-6.665-7.359-15.921-13.573-23.885-15.677c-0.288,5.955-0.806,19.871,3.175,34.854
		C57.909,72.753,65.508,88.028,76.129,98.578z M115.06,46.928c-1.288,10.935-4.133,19.765-5.526,23.519
		c-2.105,5.671-4.684,7.562-3.961,8.655c0.296,0.447,1.273,0.33,2.465,0.026c3.003-0.763,14.498-3.279,29.773-10.14
		c15.274-6.861,21.625-12.554,24.638-15.274c3.107-2.805,3.61-4.885,1.785-6.827c-1.827-1.942-9.148-9.179-20.059-15.74
		c-12.581-7.565-25.686-10.076-26.871-10.319c-0.663-0.136-2.001-0.346-2.635,0.199C113.403,22.113,117.229,28.514,115.06,46.928z
		 M177.052,139.14c10.198,5.688,20.641,7.845,33.682,8.63c7.797-5.148,13.287-12.404,17.553-20.103
		c4.266-7.696,7.096-18.313,8.188-25.298c1.129-7.222,1.796-9.757,0.486-10.193c-1.325-0.442-1.503,1.285-3.723,4.947
		c-5.494,9.067-10.349,14.302-17.994,20.542C204.849,126.151,191.369,133.69,177.052,139.14z M124.52,181.911h19.928v-5.602h-19.351
		c-1.802,0-3.263-1.46-3.266-3.261v-8.602c0.003-1.801,1.463-3.261,3.266-3.261h19.351v-5.601H124.52
		c-5.24,0-10.167,2.797-10.167,8.782v8.76C114.353,179.113,119.28,181.911,124.52,181.911z M112.421,181.911v-5.602H93.069
		c-1.802,0-3.263-1.46-3.266-3.261v-1.476h22.617v-5.65H89.804v-1.476c0.002-1.801,1.463-3.261,3.266-3.261h19.352v-5.601H92.492
		c-5.24,0-10.167,2.797-10.167,8.782v8.76c0,5.985,4.927,8.783,10.167,8.783H112.421z M191.603,181.911v-20.725h13.128v-5.601
		h-33.839v5.601h13.13v20.725H191.603z M216.575,161.187h19.351v-5.601h-19.928c-5.239,0-10.167,2.797-10.167,8.782v8.76
		c0,5.985,4.928,8.783,10.167,8.783h19.928v-5.602h-19.351c-1.803,0-3.264-1.46-3.266-3.261v-1.476h22.616v-5.65H213.31v-1.476
		C213.312,162.646,214.772,161.187,216.575,161.187z M164.13,163.244l-6.635,6.24l-6.636-6.24h-6.634l10.619,9.963v8.704h5.3v-8.704
		l10.619-9.963H164.13z M60.487,181.911h19.928v-5.602H61.063c-1.802,0-3.263-1.46-3.266-3.261v-8.602
		c0.003-1.801,1.463-3.261,3.266-3.261h19.352v-5.601H60.487c-5.24,0-10.167,2.797-10.167,8.782v8.76
		C50.319,179.113,55.247,181.911,60.487,181.911z M57.148,198.924c-2.519,0-4.706-1.491-4.706-4.903c0-3.463,1.955-5.17,4.589-5.17
		c1.028,0,2.287,0.397,3.132,0.896l0.265-1.276c-0.829-0.563-2.386-0.91-3.529-0.91c-3.396,0-6.097,2.219-6.097,6.478
		c0,4.341,3.032,6.213,6.18,6.213c1.259,0,2.518-0.282,3.595-0.861l-0.166-1.243C59.401,198.66,58.258,198.924,57.148,198.924z
		 M67.139,191.055c-2.634,0-4.092,1.656-4.092,4.639c0,3.165,1.674,4.557,4.06,4.557c2.418,0,4.076-1.326,4.076-4.59
		C71.182,192.678,69.79,191.055,67.139,191.055z M67.123,199.106c-1.591,0-2.584-1.076-2.584-3.43c0-2.568,1.06-3.479,2.601-3.479
		c1.491,0,2.568,0.894,2.568,3.462C69.707,198.046,68.729,199.106,67.123,199.106z M77.842,191.055
		c-2.634,0-4.092,1.656-4.092,4.639c0,3.165,1.673,4.557,4.059,4.557c2.419,0,4.076-1.326,4.076-4.59
		C81.885,192.678,80.493,191.055,77.842,191.055z M77.826,199.106c-1.59,0-2.584-1.076-2.584-3.43c0-2.568,1.061-3.479,2.601-3.479
		c1.491,0,2.568,0.894,2.568,3.462C80.411,198.046,79.433,199.106,77.826,199.106z M88.612,191.055
		c-0.829,0-1.723,0.712-2.353,1.375h-0.1l-0.249-1.243h-1.126v8.931h1.458v-6.329c0.547-0.513,1.458-1.292,2.187-1.292
		c0.298,0,0.58,0.083,0.812,0.198l0.332-1.094C89.308,191.237,89.01,191.055,88.612,191.055z M97.327,191.402
		c-0.447-0.165-1.176-0.348-2.087-0.348c-2.551,0-4.059,1.656-4.059,4.755c0,2.353,1.143,4.44,3.479,4.44
		c1.275,0,2.071-0.696,2.684-1.276l0.083,0.017l0.265,1.127h1.077v-12.758h-1.441V191.402z M97.327,197.765
		c-0.613,0.745-1.491,1.326-2.485,1.326c-1.259,0-2.17-1.31-2.17-3.348c0-1.955,0.696-3.595,2.734-3.595
		c0.547,0,1.259,0.149,1.921,0.464V197.765z M102.696,187.277c-0.597,0-0.978,0.414-0.978,0.944c0,0.547,0.381,0.961,0.978,0.961
		c0.563,0,0.961-0.414,0.961-0.961S103.259,187.277,102.696,187.277z M101.967,200.117h1.458v-8.931h-1.458V200.117z
		 M111.014,191.055c-1.143,0-2.005,0.464-2.916,1.292l-0.1-0.017l-0.215-1.144h-1.16v8.931h1.458v-6.545
		c0.629-0.695,1.557-1.309,2.551-1.309c1.11,0,1.756,0.696,1.756,2.319v5.534h1.458v-5.749
		C113.847,192.347,112.869,191.055,111.014,191.055z M123.937,199.123c-0.464,0-0.497-0.314-0.497-0.663v-4.291
		c0-2.534-1.491-3.114-3.33-3.114c-1.061,0-2.253,0.381-3.198,0.928l0.331,1.011c0.845-0.447,1.823-0.812,2.8-0.812
		c1.458,0,1.938,0.662,1.938,1.904v0.663c-0.895,0.215-2.286,0.53-3.429,0.812c-1.342,0.349-2.071,0.829-2.071,2.071
		c0,1.541,1.209,2.618,2.684,2.618c1.11,0,1.822-0.447,2.784-1.21l0.066,0.034c0.116,0.762,0.48,1.176,1.276,1.176
		c0.414,0,0.911-0.149,1.292-0.314l-0.066-0.845C124.368,199.106,124.186,199.123,123.937,199.123z M121.982,197.914
		c-0.779,0.795-1.673,1.226-2.436,1.226c-0.862,0-1.574-0.613-1.574-1.573c0-0.829,0.513-1.044,1.16-1.228
		c0.712-0.197,1.889-0.496,2.85-0.679V197.914z M130.797,199.058c-1.905,0-2.784-1.228-2.784-3.281c0-2.237,0.746-3.513,2.651-3.513
		c0.729,0,1.673,0.249,2.253,0.514l0.265-1.192c-0.746-0.315-1.822-0.53-2.651-0.53c-3.148,0-4.009,2.137-4.009,4.738
		c0,2.999,1.607,4.457,4.059,4.457c0.978,0,2.055-0.249,2.783-0.581l-0.165-1.076C132.603,198.809,131.609,199.058,130.797,199.058z
		 M136,200.117h1.458v-8.931H136V200.117z M136.729,187.277c-0.596,0-0.978,0.414-0.978,0.944c0,0.547,0.381,0.961,0.978,0.961
		c0.563,0,0.961-0.414,0.961-0.961S137.292,187.277,136.729,187.277z M143.737,189.911l2.684-3.081l-1.292-0.696l-2.055,3.445
		L143.737,189.911z M144.416,191.055c-2.634,0-4.092,1.656-4.092,4.639c0,3.165,1.673,4.557,4.06,4.557
		c2.419,0,4.075-1.326,4.075-4.59C148.459,192.678,147.067,191.055,144.416,191.055z M144.399,199.106
		c-1.59,0-2.584-1.076-2.584-3.43c0-2.568,1.061-3.479,2.601-3.479c1.491,0,2.568,0.894,2.568,3.462
		C146.984,198.046,146.007,199.106,144.399,199.106z M155.749,191.055c-1.143,0-2.004,0.464-2.915,1.292l-0.1-0.017l-0.216-1.144
		h-1.16v8.931h1.459v-6.545c0.63-0.695,1.557-1.309,2.551-1.309c1.11,0,1.757,0.696,1.757,2.319v5.534h1.458v-5.749
		C158.583,192.347,157.604,191.055,155.749,191.055z M175.582,197.02h-0.066c-1.938-2.635-5.748-7.34-7.488-9.328h-1.275v12.426
		h1.475v-9.925h0.099c1.855,2.154,6.263,7.755,7.903,10.058l0.861-0.149v-12.409h-1.508V197.02z M187.43,199.123
		c-0.464,0-0.497-0.314-0.497-0.663v-4.291c0-2.534-1.491-3.114-3.33-3.114c-1.061,0-2.253,0.381-3.198,0.928l0.331,1.011
		c0.847-0.447,1.823-0.812,2.801-0.812c1.458,0,1.938,0.662,1.938,1.904v0.663c-0.895,0.215-2.286,0.53-3.43,0.812
		c-1.342,0.349-2.071,0.829-2.071,2.071c0,1.541,1.21,2.618,2.685,2.618c1.11,0,1.823-0.447,2.783-1.21l0.066,0.034
		c0.115,0.762,0.48,1.176,1.275,1.176c0.414,0,0.912-0.149,1.293-0.314l-0.066-0.845C187.86,199.106,187.679,199.123,187.43,199.123
		z M185.475,197.914c-0.779,0.795-1.674,1.226-2.436,1.226c-0.862,0-1.574-0.613-1.574-1.573c0-0.829,0.514-1.044,1.16-1.228
		c0.713-0.197,1.889-0.496,2.85-0.679V197.914z M194.29,199.058c-1.905,0-2.784-1.228-2.784-3.281c0-2.237,0.745-3.513,2.651-3.513
		c0.729,0,1.673,0.249,2.254,0.514l0.264-1.192c-0.745-0.315-1.822-0.53-2.65-0.53c-3.148,0-4.01,2.137-4.01,4.738
		c0,2.999,1.607,4.457,4.06,4.457c0.978,0,2.055-0.249,2.783-0.581l-0.165-1.076C196.096,198.809,195.102,199.058,194.29,199.058z
		 M199.492,200.117h1.458v-8.931h-1.458V200.117z M200.221,187.277c-0.596,0-0.977,0.414-0.977,0.944
		c0,0.547,0.381,0.961,0.977,0.961c0.563,0,0.962-0.414,0.962-0.961S200.784,187.277,200.221,187.277z M207.909,191.055
		c-2.635,0-4.093,1.656-4.093,4.639c0,3.165,1.674,4.557,4.06,4.557c2.419,0,4.076-1.326,4.076-4.59
		C211.952,192.678,210.561,191.055,207.909,191.055z M207.893,199.106c-1.591,0-2.585-1.076-2.585-3.43
		c0-2.568,1.061-3.479,2.602-3.479c1.491,0,2.568,0.894,2.568,3.462C210.478,198.046,209.5,199.106,207.893,199.106z
		 M219.242,191.055c-1.143,0-2.005,0.464-2.915,1.292l-0.1-0.017l-0.216-1.144h-1.16v8.931h1.459v-6.545
		c0.63-0.695,1.557-1.309,2.551-1.309c1.11,0,1.757,0.696,1.757,2.319v5.534h1.458v-5.749
		C222.076,192.347,221.098,191.055,219.242,191.055z M232.167,199.123c-0.465,0-0.498-0.314-0.498-0.663v-4.291
		c0-2.534-1.491-3.114-3.33-3.114c-1.061,0-2.253,0.381-3.198,0.928l0.332,1.011c0.845-0.447,1.822-0.812,2.8-0.812
		c1.458,0,1.938,0.662,1.938,1.904v0.663c-0.895,0.215-2.286,0.53-3.429,0.812c-1.343,0.349-2.071,0.829-2.071,2.071
		c0,1.541,1.209,2.618,2.684,2.618c1.11,0,1.823-0.447,2.783-1.21l0.066,0.034c0.116,0.762,0.48,1.176,1.276,1.176
		c0.414,0,0.91-0.149,1.292-0.314l-0.066-0.845C232.598,199.106,232.414,199.123,232.167,199.123z M230.211,197.914
		c-0.778,0.795-1.673,1.226-2.435,1.226c-0.862,0-1.575-0.613-1.575-1.573c0-0.829,0.515-1.044,1.16-1.228
		c0.713-0.197,1.89-0.496,2.85-0.679V197.914z M235.231,200.117h1.458v-12.758h-1.458V200.117z M196.317,88.266
		c-0.062,0.049-0.135,0.108-0.198,0.159c0.913,0.342,1.897,0.538,2.931,0.538c4.626,0,8.376-3.75,8.376-8.377
		c0-4.625-3.75-8.376-8.376-8.376c-4.627,0-8.377,3.75-8.377,8.376c0,0.599,0.065,1.182,0.185,1.745
		c0.476-0.355,1.111-0.814,1.685-1.197c0.714-0.476,1.524-0.728,2.345-0.728c1.307,0,2.522,0.63,3.252,1.686
		c1.038,1.504,0.991,3.232-0.126,4.624C197.537,87.309,196.944,87.773,196.317,88.266z M112.105,82.009
		c-2.056,0.318-3.357,0.6-3.667,1.501c-0.31,0.9,0.101,1.574,1.174,2.666c10.194,10.152,25.34,17.219,39.2,21.124
		c3.935-1.884,7.938-3.908,11.969-6.061c6.336-3.367,11.354-6.272,15.914-9.154c-0.809-3.483-1.417-7.485-1.645-12.068
		c-0.492-9.941,1.233-19.782,1.832-22.507c0.598-2.725,1.359-5.458,0.859-5.672c-0.778-0.334-1.554,0.812-3.227,2.171
		c-3.991,3.241-15.174,12.325-33.198,19.389C128.28,78.507,117.478,81.177,112.105,82.009z M184.659,111.372
		c0.705-0.696-0.503-1.86-2.002-4.303c-1.09-1.775-2.396-4.211-3.621-7.351c-4.193,2.548-8.855,5.23-14.19,8.079
		c-1.354,0.733-2.711,1.451-4.067,2.161c1.288,0.205,2.548,0.381,3.763,0.519C181.154,112.244,183.954,112.068,184.659,111.372z
		 M121.166,99.929c-0.678,0.522-0.077,2.096,3.131,6.955c1.922,2.912,3.269,4.506,6.602,8.204c3.809-1.475,7.781-3.138,11.865-4.976
		c-7.034-2.736-12.852-5.655-16.888-7.896C122.603,100.4,121.848,99.403,121.166,99.929z M136.782,121.246
		c3.726,3.299,9.826,7.821,15.346,11.041c3.719,2.17,11.233,6.316,14.529,6.316c2.092,0,4-0.788,9.972-3.214
		c6.488-2.638,15.792-7.363,22.29-12.271c2.502-1.897,7.184-5.739,6.899-6.241c-0.169-0.3-1.868,0.208-4.149,0.542
		c-5.203,0.761-18.423,2.338-35.262-0.604c-4.563-0.797-8.94-1.867-13.072-3.088C147.736,116.474,142.182,118.992,136.782,121.246z
		 M163.828,105.892c12.269-6.551,21.327-12.395,30.329-18.662c0.925-0.772,1.702-1.282,2.171-1.867
		c0.532-0.663,0.528-1.327,0.033-2.044c-0.496-0.718-1.603-1.068-2.621-0.389c-0.823,0.549-1.788,1.269-2.08,1.505
		c-9.586,6.99-17.065,11.909-29.861,18.709c-35.186,18.799-64.857,26.34-68.734,18.831c-2.625-5.09,6.964-15.676,23.598-27.383
		c-0.767-0.484-1.535-1.002-2.305-1.555C92.688,107.71,79.327,121.521,82.88,128C87.87,137.101,125.998,126.377,163.828,105.892z
		 M210.89,60.625c0.999,2.491-0.858,6.674-5.229,11.769c1.309,1.058,2.357,2.421,3.041,3.981
		c9.917-9.078,14.628-16.796,12.831-20.895c-2.671-6.087-20.152-3.812-42.928,4.464c-0.159,0.891-0.326,1.911-0.487,3.05
		C195.703,57.006,208.884,55.623,210.89,60.625z"/>
</g>
<g id="Escala_de_grises" display="none">
	<g display="inline">
		<radialGradient id="SVGID_1_" cx="199.0488" cy="80.5859" r="8.3767" gradientUnits="userSpaceOnUse">
			<stop  offset="0" style="stop-color:#BFBFBF"/>
			<stop  offset="0.214" style="stop-color:#BBBBBB"/>
			<stop  offset="0.425" style="stop-color:#AFAFAF"/>
			<stop  offset="0.635" style="stop-color:#9C9C9C"/>
			<stop  offset="0.8432" style="stop-color:#808080"/>
			<stop  offset="1" style="stop-color:#666666"/>
		</radialGradient>
		<circle fill="url(#SVGID_1_)" cx="199.049" cy="80.585" r="8.376"/>
		<linearGradient id="SVGID_2_" gradientUnits="userSpaceOnUse" x1="83.7783" y1="18.4702" x2="83.7783" y2="50.6328">
			<stop  offset="0" style="stop-color:#BFBFBF"/>
			<stop  offset="1" style="stop-color:#666666"/>
		</linearGradient>
		<path fill="url(#SVGID_2_)" d="M57.344,16.536c0.08-0.433,0.369-0.65,1.484-0.676c2.968-0.07,9.926-0.569,24.108,1.346
			c13.759,1.858,23.5,6.405,23.5,6.405c3.51,8.076,4.002,15.779,3.724,21.621c-0.513,10.768-2.798,21.418-4.323,25.644
			c-0.475,1.315-0.71,2.292-1.48,2.508c-0.658,0.185-1.37-1.525-2.254-2.969c-4.017-6.566-6.448-10.715-17.475-25.848
			c-9.12-12.516-20.785-23.049-25.853-26.416C57.665,17.414,57.25,17.039,57.344,16.536z"/>
		<linearGradient id="SVGID_3_" gradientUnits="userSpaceOnUse" x1="62.7852" y1="97.5234" x2="68.342" y2="27.0412">
			<stop  offset="0" style="stop-color:#BFBFBF"/>
			<stop  offset="1" style="stop-color:#666666"/>
		</linearGradient>
		<path fill="url(#SVGID_3_)" d="M50.754,22.915c7.964,2.104,17.22,8.318,23.885,15.677c-1.617,8.756-2.458,10.504-2.458,27.526
			s5.954,29.804,7.467,32.378c0.947,1.61,0.988,2.374,0.502,2.718c-0.583,0.413-1.671-0.303-4.021-2.637
			c-10.621-10.55-18.22-25.825-22.2-40.809C49.948,42.786,50.466,28.87,50.754,22.915z"/>
		<linearGradient id="SVGID_4_" gradientUnits="userSpaceOnUse" x1="143.0005" y1="31.8379" x2="115.3985" y2="67.4174">
			<stop  offset="0" style="stop-color:#BFBFBF"/>
			<stop  offset="1" style="stop-color:#666666"/>
		</linearGradient>
		<path fill="url(#SVGID_4_)" d="M114.668,21.025c0.634-0.544,1.973-0.335,2.635-0.199c1.186,0.244,14.29,2.754,26.871,10.319
			c10.91,6.562,18.231,13.798,20.059,15.74c1.825,1.942,1.322,4.022-1.785,6.827c-3.013,2.72-9.363,8.414-24.638,15.274
			c-15.275,6.861-26.77,9.377-29.773,10.14c-1.192,0.303-2.169,0.421-2.465-0.026c-0.722-1.093,1.856-2.983,3.961-8.655
			c1.394-3.754,4.239-12.583,5.526-23.519C117.229,28.514,113.403,22.113,114.668,21.025z"/>
		<linearGradient id="SVGID_5_" gradientUnits="userSpaceOnUse" x1="175.9209" y1="81.8237" x2="121.5872" y2="81.8237">
			<stop  offset="0" style="stop-color:#BFBFBF"/>
			<stop  offset="1" style="stop-color:#666666"/>
		</linearGradient>
		<path fill="url(#SVGID_5_)" d="M177.742,51.838c0.5,0.214-0.262,2.948-0.859,5.672c-0.599,2.725-2.324,12.566-1.832,22.507
			c0.688,13.889,4.847,22.556,7.606,27.051c1.499,2.443,2.707,3.607,2.002,4.303s-3.505,0.872-20.118-0.896
			c-16.568-1.877-40.625-10.055-54.929-24.3c-1.074-1.092-1.484-1.766-1.174-2.666c0.31-0.901,1.611-1.183,3.667-1.501
			c5.373-0.833,16.175-3.502,29.212-8.612c18.024-7.063,29.207-16.148,33.198-19.389C176.188,52.649,176.964,51.503,177.742,51.838z
			"/>
		<linearGradient id="SVGID_6_" gradientUnits="userSpaceOnUse" x1="202.874" y1="119.1963" x2="141.6839" y2="119.1963">
			<stop  offset="0" style="stop-color:#BFBFBF"/>
			<stop  offset="1" style="stop-color:#666666"/>
		</linearGradient>
		<path fill="url(#SVGID_6_)" d="M121.166,99.929c0.682-0.526,1.438,0.471,4.709,2.288c7.987,4.435,22.938,11.527,40.532,14.6
			c16.839,2.941,30.059,1.364,35.262,0.604c2.281-0.334,3.98-0.842,4.149-0.542c0.284,0.502-4.397,4.344-6.899,6.241
			c-6.498,4.907-15.802,9.633-22.29,12.271c-5.972,2.426-7.88,3.214-9.972,3.214c-3.296,0-10.811-4.146-14.529-6.316
			c-7.025-4.099-15.01-10.316-17.813-13.419c-6.041-6.688-7.545-8.235-10.019-11.984
			C121.089,102.025,120.487,100.452,121.166,99.929z"/>
		<linearGradient id="SVGID_7_" gradientUnits="userSpaceOnUse" x1="232.54" y1="90.1865" x2="194.9765" y2="144.9402">
			<stop  offset="0" style="stop-color:#BFBFBF"/>
			<stop  offset="1" style="stop-color:#666666"/>
		</linearGradient>
		<path fill="url(#SVGID_7_)" d="M236.961,92.176c1.31,0.436,0.643,2.971-0.486,10.193c-1.093,6.985-3.923,17.602-8.188,25.298
			c-4.266,7.698-9.756,14.954-17.553,20.103c-13.041-0.785-23.483-2.942-33.682-8.63c14.317-5.449,27.797-12.988,38.192-21.475
			c7.646-6.24,12.5-11.475,17.994-20.542C235.458,93.461,235.636,91.734,236.961,92.176z"/>
		<path fill="#666666" d="M170.892,161.187h13.13v20.725h7.581v-20.725h13.128v-5.601h-33.839V161.187z M50.319,164.368v8.76
			c0,5.985,4.927,8.783,10.167,8.783h19.928v-5.602H61.063c-1.802,0-3.263-1.46-3.266-3.261v-8.602
			c0.003-1.801,1.463-3.261,3.266-3.261h19.352v-5.601H60.487C55.247,155.586,50.319,158.383,50.319,164.368z M121.832,173.049
			v-8.602c0.003-1.801,1.463-3.261,3.266-3.261h19.351v-5.601H124.52c-5.24,0-10.167,2.797-10.167,8.782v8.76
			c0,5.985,4.927,8.783,10.167,8.783h19.928v-5.602h-19.351C123.295,176.31,121.834,174.85,121.832,173.049z M82.325,164.368v8.76
			c0,5.985,4.927,8.783,10.167,8.783h19.929v-5.602H93.069c-1.802,0-3.263-1.46-3.266-3.261v-1.476h22.617v-5.65H89.804v-1.476
			c0.002-1.801,1.463-3.261,3.266-3.261h19.352v-5.601H92.492C87.252,155.586,82.325,158.383,82.325,164.368z M216.575,161.187
			h19.351v-5.601h-19.928c-5.239,0-10.167,2.797-10.167,8.782v8.76c0,5.985,4.928,8.783,10.167,8.783h19.928v-5.602h-19.351
			c-1.803,0-3.264-1.46-3.266-3.261v-1.476h22.616v-5.65H213.31v-1.476C213.312,162.646,214.772,161.187,216.575,161.187z
			 M157.495,169.484l-6.636-6.24h-6.634l10.619,9.963v8.704h5.3v-8.704l10.619-9.963h-6.634L157.495,169.484z"/>
		<g>
			<g>
				<path fill="#999999" d="M50.802,194.037c0-4.259,2.701-6.478,6.097-6.478c1.144,0,2.701,0.348,3.529,0.91l-0.265,1.276
					c-0.845-0.498-2.104-0.896-3.132-0.896c-2.634,0-4.589,1.707-4.589,5.17c0,3.412,2.187,4.903,4.706,4.903
					c1.11,0,2.253-0.264,3.264-0.778l0.166,1.243c-1.077,0.579-2.336,0.861-3.595,0.861
					C53.834,200.25,50.802,198.378,50.802,194.037z"/>
				<path fill="#999999" d="M63.046,195.693c0-2.982,1.458-4.639,4.092-4.639c2.651,0,4.043,1.623,4.043,4.605
					c0,3.264-1.657,4.59-4.076,4.59C64.72,200.25,63.046,198.858,63.046,195.693z M69.707,195.66c0-2.568-1.077-3.462-2.568-3.462
					c-1.541,0-2.601,0.91-2.601,3.479c0,2.354,0.994,3.43,2.584,3.43C68.729,199.106,69.707,198.046,69.707,195.66z"/>
				<path fill="#999999" d="M73.75,195.693c0-2.982,1.458-4.639,4.092-4.639c2.651,0,4.043,1.623,4.043,4.605
					c0,3.264-1.657,4.59-4.076,4.59C75.423,200.25,73.75,198.858,73.75,195.693z M80.411,195.66c0-2.568-1.077-3.462-2.568-3.462
					c-1.541,0-2.601,0.91-2.601,3.479c0,2.354,0.994,3.43,2.584,3.43C79.433,199.106,80.411,198.046,80.411,195.66z"/>
				<path fill="#999999" d="M84.785,200.117v-8.931h1.126l0.249,1.243h0.1c0.629-0.663,1.524-1.375,2.353-1.375
					c0.397,0,0.696,0.183,0.961,0.546l-0.332,1.094c-0.232-0.115-0.513-0.198-0.812-0.198c-0.729,0-1.64,0.779-2.187,1.292v6.329
					H84.785z"/>
				<path fill="#999999" d="M91.181,195.81c0-3.099,1.508-4.755,4.059-4.755c0.911,0,1.64,0.183,2.087,0.348v-4.043h1.441v12.758
					h-1.077l-0.265-1.127l-0.083-0.017c-0.613,0.58-1.408,1.276-2.684,1.276C92.324,200.25,91.181,198.162,91.181,195.81z
					 M97.327,197.765v-5.152c-0.663-0.314-1.375-0.464-1.921-0.464c-2.038,0-2.734,1.64-2.734,3.595c0,2.038,0.912,3.348,2.17,3.348
					C95.836,199.091,96.714,198.51,97.327,197.765z"/>
				<path fill="#999999" d="M102.696,187.277c0.563,0,0.961,0.397,0.961,0.944s-0.398,0.961-0.961,0.961
					c-0.597,0-0.978-0.414-0.978-0.961C101.719,187.691,102.1,187.277,102.696,187.277z M101.967,191.187h1.458v8.931h-1.458
					V191.187z"/>
				<path fill="#999999" d="M106.623,191.187h1.16l0.215,1.144l0.1,0.017c0.911-0.828,1.773-1.292,2.916-1.292
					c1.855,0,2.833,1.292,2.833,3.313v5.749h-1.458v-5.534c0-1.623-0.646-2.319-1.756-2.319c-0.994,0-1.922,0.613-2.551,1.309v6.545
					h-1.458V191.187z"/>
				<path fill="#999999" d="M124.583,199.936c-0.381,0.165-0.878,0.314-1.292,0.314c-0.795,0-1.16-0.414-1.276-1.176l-0.066-0.034
					c-0.961,0.763-1.674,1.21-2.784,1.21c-1.475,0-2.684-1.077-2.684-2.618c0-1.242,0.729-1.723,2.071-2.071
					c1.143-0.281,2.535-0.597,3.429-0.812v-0.663c0-1.242-0.48-1.904-1.938-1.904c-0.978,0-1.955,0.364-2.8,0.812l-0.331-1.011
					c0.945-0.547,2.137-0.928,3.198-0.928c1.839,0,3.33,0.58,3.33,3.114v4.291c0,0.349,0.033,0.663,0.497,0.663
					c0.249,0,0.431-0.017,0.58-0.032L124.583,199.936z M119.546,199.14c0.762,0,1.657-0.431,2.436-1.226v-2.254
					c-0.961,0.183-2.137,0.481-2.85,0.679c-0.646,0.184-1.16,0.398-1.16,1.228C117.973,198.526,118.685,199.14,119.546,199.14z"/>
				<path fill="#999999" d="M126.522,195.793c0-2.602,0.861-4.738,4.009-4.738c0.829,0,1.905,0.215,2.651,0.53l-0.265,1.192
					c-0.58-0.265-1.524-0.514-2.253-0.514c-1.906,0-2.651,1.275-2.651,3.513c0,2.054,0.878,3.281,2.784,3.281
					c0.812,0,1.806-0.249,2.403-0.465l0.165,1.076c-0.729,0.332-1.806,0.581-2.783,0.581
					C128.129,200.25,126.522,198.792,126.522,195.793z"/>
				<path fill="#999999" d="M136.729,187.277c0.563,0,0.961,0.397,0.961,0.944s-0.398,0.961-0.961,0.961
					c-0.596,0-0.978-0.414-0.978-0.961C135.751,187.691,136.133,187.277,136.729,187.277z M136,191.187h1.458v8.931H136V191.187z"/>
				<path fill="#999999" d="M140.324,195.693c0-2.982,1.458-4.639,4.092-4.639c2.651,0,4.043,1.623,4.043,4.605
					c0,3.264-1.656,4.59-4.075,4.59C141.997,200.25,140.324,198.858,140.324,195.693z M146.984,195.66
					c0-2.568-1.077-3.462-2.568-3.462c-1.54,0-2.601,0.91-2.601,3.479c0,2.354,0.994,3.43,2.584,3.43
					C146.007,199.106,146.984,198.046,146.984,195.66z M143.074,189.579l2.055-3.445l1.292,0.696l-2.684,3.081L143.074,189.579z"/>
				<path fill="#999999" d="M151.358,191.187h1.16l0.216,1.144l0.1,0.017c0.911-0.828,1.772-1.292,2.915-1.292
					c1.855,0,2.834,1.292,2.834,3.313v5.749h-1.458v-5.534c0-1.623-0.646-2.319-1.757-2.319c-0.994,0-1.921,0.613-2.551,1.309v6.545
					h-1.459V191.187z"/>
				<path fill="#999999" d="M176.229,200.25c-1.641-2.303-6.048-7.903-7.903-10.058h-0.099v9.925h-1.475v-12.426h1.275
					c1.74,1.988,5.551,6.693,7.488,9.328h0.066v-9.328h1.508v12.409L176.229,200.25z"/>
				<path fill="#999999" d="M188.076,199.936c-0.381,0.165-0.879,0.314-1.293,0.314c-0.795,0-1.16-0.414-1.275-1.176l-0.066-0.034
					c-0.96,0.763-1.673,1.21-2.783,1.21c-1.475,0-2.685-1.077-2.685-2.618c0-1.242,0.729-1.723,2.071-2.071
					c1.144-0.281,2.535-0.597,3.43-0.812v-0.663c0-1.242-0.48-1.904-1.938-1.904c-0.978,0-1.954,0.364-2.801,0.812l-0.331-1.011
					c0.945-0.547,2.138-0.928,3.198-0.928c1.839,0,3.33,0.58,3.33,3.114v4.291c0,0.349,0.033,0.663,0.497,0.663
					c0.249,0,0.431-0.017,0.58-0.032L188.076,199.936z M183.039,199.14c0.762,0,1.656-0.431,2.436-1.226v-2.254
					c-0.961,0.183-2.137,0.481-2.85,0.679c-0.646,0.184-1.16,0.398-1.16,1.228C181.465,198.526,182.177,199.14,183.039,199.14z"/>
				<path fill="#999999" d="M190.015,195.793c0-2.602,0.861-4.738,4.01-4.738c0.828,0,1.905,0.215,2.65,0.53l-0.264,1.192
					c-0.581-0.265-1.525-0.514-2.254-0.514c-1.906,0-2.651,1.275-2.651,3.513c0,2.054,0.879,3.281,2.784,3.281
					c0.812,0,1.806-0.249,2.402-0.465l0.165,1.076c-0.729,0.332-1.806,0.581-2.783,0.581
					C191.622,200.25,190.015,198.792,190.015,195.793z"/>
				<path fill="#999999" d="M200.221,187.277c0.563,0,0.962,0.397,0.962,0.944s-0.398,0.961-0.962,0.961
					c-0.596,0-0.977-0.414-0.977-0.961C199.244,187.691,199.625,187.277,200.221,187.277z M199.492,191.187h1.458v8.931h-1.458
					V191.187z"/>
				<path fill="#999999" d="M203.816,195.693c0-2.982,1.458-4.639,4.093-4.639c2.651,0,4.043,1.623,4.043,4.605
					c0,3.264-1.657,4.59-4.076,4.59C205.49,200.25,203.816,198.858,203.816,195.693z M210.478,195.66
					c0-2.568-1.077-3.462-2.568-3.462c-1.541,0-2.602,0.91-2.602,3.479c0,2.354,0.994,3.43,2.585,3.43
					C209.5,199.106,210.478,198.046,210.478,195.66z"/>
				<path fill="#999999" d="M214.852,191.187h1.16l0.216,1.144l0.1,0.017c0.91-0.828,1.772-1.292,2.915-1.292
					c1.855,0,2.834,1.292,2.834,3.313v5.749h-1.458v-5.534c0-1.623-0.646-2.319-1.757-2.319c-0.994,0-1.921,0.613-2.551,1.309v6.545
					h-1.459V191.187z"/>
				<path fill="#999999" d="M232.813,199.936c-0.382,0.165-0.878,0.314-1.292,0.314c-0.796,0-1.16-0.414-1.276-1.176l-0.066-0.034
					c-0.96,0.763-1.673,1.21-2.783,1.21c-1.475,0-2.684-1.077-2.684-2.618c0-1.242,0.729-1.723,2.071-2.071
					c1.143-0.281,2.534-0.597,3.429-0.812v-0.663c0-1.242-0.48-1.904-1.938-1.904c-0.978,0-1.955,0.364-2.8,0.812l-0.332-1.011
					c0.945-0.547,2.138-0.928,3.198-0.928c1.839,0,3.33,0.58,3.33,3.114v4.291c0,0.349,0.033,0.663,0.498,0.663
					c0.247,0,0.431-0.017,0.579-0.032L232.813,199.936z M227.776,199.14c0.762,0,1.656-0.431,2.435-1.226v-2.254
					c-0.96,0.183-2.137,0.481-2.85,0.679c-0.646,0.184-1.16,0.398-1.16,1.228C226.201,198.526,226.914,199.14,227.776,199.14z"/>
				<path fill="#999999" d="M235.231,187.359h1.458v12.758h-1.458V187.359z"/>
			</g>
		</g>
		<path fill="none" stroke="#000000" stroke-width="0.1" stroke-miterlimit="10" d="M197.723,85.363"/>
		<path fill="#404040" d="M193.74,82.931c-0.823,0.549-1.788,1.269-2.08,1.505c-9.586,6.99-17.065,11.909-29.861,18.709
			c-35.186,18.799-64.857,26.34-68.734,18.831c-2.714-5.262,7.625-16.397,25.305-28.572c-0.745-0.518-1.477-1.046-2.196-1.586
			C93.437,106.94,79.229,121.342,82.88,128c4.99,9.101,43.118-1.623,80.948-22.108c12.269-6.551,21.327-12.395,30.329-18.662
			c0.925-0.772,1.702-1.282,2.171-1.867c0.532-0.663,0.528-1.327,0.033-2.044C195.865,82.601,194.759,82.251,193.74,82.931z
			 M221.533,55.48c-2.762-6.293-21.355-3.648-45.264,5.327c-0.143,0.88-0.292,1.882-0.438,2.981
			c18.722-6.655,32.966-8.38,35.058-3.163c1.103,2.75-1.265,7.559-6.664,13.384c1.267,0.998,2.234,2.35,2.76,3.91
			C218.077,68.175,223.432,59.809,221.533,55.48z"/>
	</g>
</g>
<g id="Color">
	<radialGradient id="SVGID_8_" cx="199.0488" cy="80.5859" r="8.3767" gradientUnits="userSpaceOnUse">
		<stop  offset="0" style="stop-color:#8BC751"/>
		<stop  offset="0.214" style="stop-color:#87C350"/>
		<stop  offset="0.425" style="stop-color:#7BBA4E"/>
		<stop  offset="0.635" style="stop-color:#66AF4B"/>
		<stop  offset="0.8432" style="stop-color:#44A048"/>
		<stop  offset="1" style="stop-color:#0B9446"/>
	</radialGradient>
	<circle fill="url(#SVGID_8_)" cx="199.049" cy="80.585" r="8.376"/>
	<linearGradient id="SVGID_9_" gradientUnits="userSpaceOnUse" x1="83.7783" y1="18.4702" x2="83.7783" y2="50.6328">
		<stop  offset="0" style="stop-color:#8DC63F"/>
		<stop  offset="1" style="stop-color:#008E4A"/>
	</linearGradient>
	<path fill="url(#SVGID_9_)" d="M57.344,16.536c0.08-0.433,0.369-0.65,1.484-0.676c2.968-0.07,9.926-0.569,24.108,1.346
		c13.759,1.858,23.5,6.405,23.5,6.405c3.51,8.076,4.002,15.779,3.724,21.621c-0.513,10.768-2.798,21.418-4.323,25.644
		c-0.475,1.315-0.71,2.292-1.48,2.508c-0.658,0.185-1.37-1.525-2.254-2.969c-4.017-6.566-6.448-10.715-17.475-25.848
		c-9.12-12.516-20.785-23.049-25.853-26.416C57.665,17.414,57.25,17.039,57.344,16.536z"/>
	<linearGradient id="SVGID_10_" gradientUnits="userSpaceOnUse" x1="62.7852" y1="97.5234" x2="68.342" y2="27.0412">
		<stop  offset="0" style="stop-color:#8DC63F"/>
		<stop  offset="1" style="stop-color:#008E4A"/>
	</linearGradient>
	<path fill="url(#SVGID_10_)" d="M50.754,22.915c7.964,2.104,17.22,8.318,23.885,15.677c-1.617,8.756-2.458,10.504-2.458,27.526
		s5.954,29.804,7.467,32.378c0.947,1.61,0.988,2.374,0.502,2.718c-0.583,0.413-1.671-0.303-4.021-2.637
		c-10.621-10.55-18.22-25.825-22.2-40.809C49.948,42.786,50.466,28.87,50.754,22.915z"/>
	<linearGradient id="SVGID_11_" gradientUnits="userSpaceOnUse" x1="143.0005" y1="31.8379" x2="115.3985" y2="67.4174">
		<stop  offset="0" style="stop-color:#8DC63F"/>
		<stop  offset="1" style="stop-color:#008E4A"/>
	</linearGradient>
	<path fill="url(#SVGID_11_)" d="M114.668,21.025c0.634-0.544,1.973-0.335,2.635-0.199c1.186,0.244,14.29,2.754,26.871,10.319
		c10.91,6.562,18.231,13.798,20.059,15.74c1.825,1.942,1.322,4.022-1.785,6.827c-3.013,2.72-9.363,8.414-24.638,15.274
		c-15.275,6.861-26.77,9.377-29.773,10.14c-1.192,0.303-2.169,0.421-2.465-0.026c-0.722-1.093,1.856-2.983,3.961-8.655
		c1.394-3.754,4.239-12.583,5.526-23.519C117.229,28.514,113.403,22.113,114.668,21.025z"/>
	<linearGradient id="SVGID_12_" gradientUnits="userSpaceOnUse" x1="175.9209" y1="81.8237" x2="121.5872" y2="81.8237">
		<stop  offset="0" style="stop-color:#8DC63F"/>
		<stop  offset="1" style="stop-color:#008E4A"/>
	</linearGradient>
	<path fill="url(#SVGID_12_)" d="M177.742,51.838c0.5,0.214-0.262,2.948-0.859,5.672c-0.599,2.725-2.324,12.566-1.832,22.507
		c0.688,13.889,4.847,22.556,7.606,27.051c1.499,2.443,2.707,3.607,2.002,4.303s-3.505,0.872-20.118-0.896
		c-16.568-1.877-40.625-10.055-54.929-24.3c-1.074-1.092-1.484-1.766-1.174-2.666c0.31-0.901,1.611-1.183,3.667-1.501
		c5.373-0.833,16.175-3.502,29.212-8.612c18.024-7.063,29.207-16.148,33.198-19.389C176.188,52.649,176.964,51.503,177.742,51.838z"
		/>
	<linearGradient id="SVGID_13_" gradientUnits="userSpaceOnUse" x1="202.874" y1="119.1963" x2="141.6839" y2="119.1963">
		<stop  offset="0" style="stop-color:#8DC63F"/>
		<stop  offset="1" style="stop-color:#008E4A"/>
	</linearGradient>
	<path fill="url(#SVGID_13_)" d="M121.166,99.929c0.682-0.526,1.438,0.471,4.709,2.288c7.987,4.435,22.938,11.527,40.532,14.6
		c16.839,2.941,30.059,1.364,35.262,0.604c2.281-0.334,3.98-0.842,4.149-0.542c0.284,0.502-4.397,4.344-6.899,6.241
		c-6.498,4.907-15.802,9.633-22.29,12.271c-5.972,2.426-7.88,3.214-9.972,3.214c-3.296,0-10.811-4.146-14.529-6.316
		c-7.025-4.099-15.01-10.316-17.813-13.419c-6.041-6.688-7.545-8.235-10.019-11.984C121.089,102.025,120.487,100.452,121.166,99.929
		z"/>
	<linearGradient id="SVGID_14_" gradientUnits="userSpaceOnUse" x1="232.54" y1="90.1865" x2="194.9765" y2="144.9402">
		<stop  offset="0" style="stop-color:#8DC63F"/>
		<stop  offset="1" style="stop-color:#008E4A"/>
	</linearGradient>
	<path fill="url(#SVGID_14_)" d="M236.961,92.176c1.31,0.436,0.643,2.971-0.486,10.193c-1.093,6.985-3.923,17.602-8.188,25.298
		c-4.266,7.698-9.756,14.954-17.553,20.103c-13.041-0.785-23.483-2.942-33.682-8.63c14.317-5.449,27.797-12.988,38.192-21.475
		c7.646-6.24,12.5-11.475,17.994-20.542C235.458,93.461,235.636,91.734,236.961,92.176z"/>
	<path fill="#F26522" d="M170.892,161.187h13.13v20.725h7.581v-20.725h13.128v-5.601h-33.839V161.187z M50.319,164.368v8.76
		c0,5.985,4.927,8.783,10.167,8.783h19.928v-5.602H61.063c-1.802,0-3.263-1.46-3.266-3.261v-8.602
		c0.003-1.801,1.463-3.261,3.266-3.261h19.352v-5.601H60.487C55.247,155.586,50.319,158.383,50.319,164.368z M121.832,173.049
		v-8.602c0.003-1.801,1.463-3.261,3.266-3.261h19.351v-5.601H124.52c-5.24,0-10.167,2.797-10.167,8.782v8.76
		c0,5.985,4.927,8.783,10.167,8.783h19.928v-5.602h-19.351C123.295,176.31,121.834,174.85,121.832,173.049z M82.325,164.368v8.76
		c0,5.985,4.927,8.783,10.167,8.783h19.929v-5.602H93.069c-1.802,0-3.263-1.46-3.266-3.261v-1.476h22.617v-5.65H89.804v-1.476
		c0.002-1.801,1.463-3.261,3.266-3.261h19.352v-5.601H92.492C87.252,155.586,82.325,158.383,82.325,164.368z M216.575,161.187
		h19.351v-5.601h-19.928c-5.239,0-10.167,2.797-10.167,8.782v8.76c0,5.985,4.928,8.783,10.167,8.783h19.928v-5.602h-19.351
		c-1.803,0-3.264-1.46-3.266-3.261v-1.476h22.616v-5.65H213.31v-1.476C213.312,162.646,214.772,161.187,216.575,161.187z
		 M157.495,169.484l-6.636-6.24h-6.634l10.619,9.963v8.704h5.3v-8.704l10.619-9.963h-6.634L157.495,169.484z"/>
	<path fill="none" stroke="#000000" stroke-width="0.1" stroke-miterlimit="10" d="M197.723,85.363"/>
	<path fill="#F26522" d="M193.74,82.931c-0.823,0.549-1.788,1.269-2.08,1.505c-9.586,6.99-17.065,11.909-29.861,18.709
		c-35.186,18.799-64.857,26.34-68.734,18.831c-2.714-5.262,7.625-16.397,25.305-28.572c-0.745-0.518-1.477-1.046-2.196-1.586
		C93.437,106.94,79.229,121.342,82.88,128c4.99,9.101,43.118-1.623,80.948-22.108c12.269-6.551,21.327-12.395,30.329-18.662
		c0.925-0.772,1.702-1.282,2.171-1.867c0.532-0.663,0.528-1.327,0.033-2.044C195.865,82.601,194.759,82.251,193.74,82.931z
		 M221.533,55.48c-2.762-6.293-21.355-3.648-45.264,5.327c-0.143,0.88-0.292,1.882-0.438,2.981
		c18.722-6.655,32.966-8.38,35.058-3.163c1.103,2.75-1.265,7.559-6.664,13.384c1.267,0.998,2.234,2.35,2.76,3.91
		C218.077,68.175,223.432,59.809,221.533,55.48z"/>
</g>
</svg>
